<svg width="24" height="24" viewBox="0 0 24 24" fill="none" xmlns="http://www.w3.org/2000/svg">
<g clip-path="url(#clip0_1694_2535)">
<path d="M21.8227 10.1979C21.9417 10.8691 22.001 11.5491 22 12.2303C22 15.2727 20.8906 17.8451 18.9599 19.5863H18.9625C17.2742 21.115 14.9533 22 12.2015 22C9.49587 22 6.90109 20.9465 4.98794 19.0712C3.0748 17.1959 2 14.6524 2 12.0003C2 9.34825 3.0748 6.8048 4.98794 4.9295C6.90109 3.05419 9.49587 2.00066 12.2015 2.00066C14.7339 1.97159 17.1796 2.90417 19.0263 4.60307L16.1137 7.45798C15.0609 6.47423 13.6558 5.93552 12.2015 5.95803C9.54016 5.95803 7.27926 7.71797 6.47335 10.0879C6.04604 11.3297 6.04604 12.6747 6.47335 13.9165H6.47717C7.28691 16.2827 9.54399 18.0426 12.2053 18.0426C13.5799 18.0426 14.7608 17.6976 15.6764 17.0877H15.6725C16.2042 16.7424 16.6589 16.2952 17.0094 15.7729C17.3598 15.2507 17.5987 14.6642 17.7115 14.049H12.2015V10.1991L21.8227 10.1979Z" fill="currentColor"/>
</g>
<defs>
<clipPath id="clip0_1694_2535">
<rect width="24" height="24" fill="currentColor"/>
</clipPath>
</defs>
</svg>
