<?xml version="1.0" encoding="utf-8"?>
<svg xmlns="http://www.w3.org/2000/svg">
<symbol id="icon-17-big-plus" viewBox="0 0 17 18">
<path d="M8.48523 0.514648V17.4852" stroke="currentColor"/>
<path d="M0 9L16.9706 9" stroke="currentColor"/>

</symbol>
<symbol id="icon-24-arrow-left" viewBox="0 0 24 24">
<path fill-rule="evenodd" clip-rule="evenodd" d="M8.6582 18.74L8.56769 18.569C7.20749 15.9998 5.1064 13.8987 2.53713 12.5385L2.36615 12.4479L2.36615 11.5642L2.53713 11.4736C5.1064 10.1134 7.20749 8.01235 8.56769 5.44309L8.65821 5.27211L9.54199 5.74L9.45147 5.91098C8.25665 8.16788 6.52701 10.0868 4.42434 11.5061L21.6001 11.5061L21.6001 12.5061L4.42434 12.5061C6.52701 13.9253 8.25664 15.8442 9.45147 18.1011L9.54199 18.2721L8.6582 18.74Z"/>

</symbol>
<symbol id="icon-24-arrow-right" viewBox="0 0 24 24">
<path fill-rule="evenodd" clip-rule="evenodd" d="M15.3418 5.26L15.4323 5.43098C16.7925 8.00025 18.8936 10.1013 21.4629 11.4615L21.6338 11.5521V12.4358L21.4629 12.5264C18.8936 13.8866 16.7925 15.9876 15.4323 18.5569L15.3418 18.7279L14.458 18.26L14.5485 18.089C15.7434 15.8321 17.473 13.9132 19.5757 12.4939H2.3999V11.4939H19.5757C17.473 10.0747 15.7434 8.15577 14.5485 5.89887L14.458 5.72789L15.3418 5.26Z"/>

</symbol>
<symbol id="icon-24-calendar" viewBox="0 0 24 24">
<path fill-rule="evenodd" clip-rule="evenodd" d="M17.5 4H6.5V2H5.5V4H1V22H23V4H18.5V2H17.5V4ZM5.5 7V5H2V9H22V5H18.5V7H17.5V5H6.5V7H5.5ZM2 10V21H22V10H2Z" fill="currentColor"/>

</symbol>
<symbol id="icon-24-check" viewBox="0 0 24 24">
<path fill-rule="evenodd" clip-rule="evenodd" d="M20.2463 6.79377C16.0281 9.08583 12.781 12.8261 11.1042 17.3244L10.8666 18L10.3513 17.9722L9.88309 17.9469C9.41815 15.5432 7.87204 13.4875 5.69159 12.374L4.97794 12.0096L5.43273 11.119L6.14639 11.4834C8.13868 12.5008 9.66053 14.2169 10.443 16.2742C12.2711 11.8625 15.5596 8.20231 19.7689 5.91511L20.2463 6.79377Z" fill="currentColor"/>

</symbol>
<symbol id="icon-24-chevron-left" viewBox="0 0 24 24">
<path fill-rule="evenodd" clip-rule="evenodd" d="M13.5581 18.74L13.4676 18.569C12.1074 15.9997 10.0063 13.8987 7.43704 12.5385L7.26606 12.4479L7.26606 11.5642L7.43704 11.4736C10.0063 10.1134 12.1074 8.01235 13.4676 5.44308L13.5581 5.2721L14.4419 5.73999L14.3514 5.91097C13.0098 8.44505 10.994 10.5531 8.53294 12.006C10.994 13.459 13.0098 15.567 14.3514 18.1011L14.4419 18.2721L13.5581 18.74Z"/>

</symbol>
<symbol id="icon-24-chevron-right" viewBox="0 0 24 24">
<path fill-rule="evenodd" clip-rule="evenodd" d="M10.4419 5.26001L10.5324 5.43099C11.8926 8.00026 13.9937 10.1013 16.563 11.4615L16.7339 11.5521L16.7339 12.4358L16.563 12.5264C13.9937 13.8866 11.8926 15.9877 10.5324 18.5569L10.4419 18.7279L9.5581 18.26L9.64862 18.089C10.9902 15.5549 13.006 13.4469 15.4671 11.994C13.006 10.541 10.9902 8.43296 9.64862 5.89888L9.55811 5.7279L10.4419 5.26001Z"/>

</symbol>
<symbol id="icon-24-cross" viewBox="0 0 24 24">
<rect x="5.9895" y="5.28" width="18" height="1" transform="rotate(45 5.9895 5.28)"/>
<rect width="18" height="1" transform="matrix(-0.707107 0.707107 0.707107 0.707107 18.0105 5.28)"/>

</symbol>
<symbol id="icon-24-delete" viewBox="0 0 24 24">
<path fill-rule="evenodd" clip-rule="evenodd" d="M2.5 6C2.5 5.72386 2.72386 5.5 3 5.5H21C21.2761 5.5 21.5 5.72386 21.5 6C21.5 6.27614 21.2761 6.5 21 6.5H3C2.72386 6.5 2.5 6.27614 2.5 6Z"/>
<path fill-rule="evenodd" clip-rule="evenodd" d="M10 2.5C9.60218 2.5 9.22064 2.65804 8.93934 2.93934C8.65804 3.22064 8.5 3.60218 8.5 4V6C8.5 6.27614 8.27614 6.5 8 6.5C7.72386 6.5 7.5 6.27614 7.5 6V4C7.5 3.33696 7.76339 2.70107 8.23223 2.23223C8.70107 1.76339 9.33696 1.5 10 1.5H14C14.663 1.5 15.2989 1.76339 15.7678 2.23223C16.2366 2.70107 16.5 3.33696 16.5 4V6C16.5 6.27614 16.2761 6.5 16 6.5C15.7239 6.5 15.5 6.27614 15.5 6V4C15.5 3.60218 15.342 3.22064 15.0607 2.93934C14.7794 2.65804 14.3978 2.5 14 2.5H10ZM5 5.5C5.27614 5.5 5.5 5.72386 5.5 6V20C5.5 20.3978 5.65804 20.7794 5.93934 21.0607C6.22064 21.342 6.60218 21.5 7 21.5H17C17.3978 21.5 17.7794 21.342 18.0607 21.0607C18.342 20.7794 18.5 20.3978 18.5 20V6C18.5 5.72386 18.7239 5.5 19 5.5C19.2761 5.5 19.5 5.72386 19.5 6V20C19.5 20.663 19.2366 21.2989 18.7678 21.7678C18.2989 22.2366 17.663 22.5 17 22.5H7C6.33696 22.5 5.70107 22.2366 5.23223 21.7678C4.76339 21.2989 4.5 20.663 4.5 20V6C4.5 5.72386 4.72386 5.5 5 5.5Z"/>
<path fill-rule="evenodd" clip-rule="evenodd" d="M10 10.5C10.2761 10.5 10.5 10.7239 10.5 11V17C10.5 17.2761 10.2761 17.5 10 17.5C9.72386 17.5 9.5 17.2761 9.5 17V11C9.5 10.7239 9.72386 10.5 10 10.5Z"/>
<path fill-rule="evenodd" clip-rule="evenodd" d="M14 10.5C14.2761 10.5 14.5 10.7239 14.5 11V17C14.5 17.2761 14.2761 17.5 14 17.5C13.7239 17.5 13.5 17.2761 13.5 17V11C13.5 10.7239 13.7239 10.5 14 10.5Z"/>

</symbol>
<symbol id="icon-24-edit" viewBox="0 0 24 24">
<path fill-rule="evenodd" clip-rule="evenodd" d="M16.5393 10.2965L13.7036 7.46068L4 17.1642V20H6.83579L16.5393 10.2965ZM7.25 21H3V16.75L17.6 2.15002L21.85 6.40002L7.25 21ZM20.4358 6.40002L17.2464 9.58936L14.4107 6.75358L17.6 3.56424L20.4358 6.40002Z"/>

</symbol>
<symbol id="icon-54-arrow-left" viewBox="0 0 54 54">
<path fill-rule="evenodd" clip-rule="evenodd" d="M20.3164 40.48L20.1354 40.138C17.415 34.9995 13.2128 30.7973 8.07427 28.0769L7.73231 27.8959L7.73231 26.1283L8.07427 25.9473C13.2128 23.2269 17.415 19.0247 20.1354 13.8862L20.3164 13.5442L22.084 14.48L21.9029 14.822C19.5133 19.3358 16.054 23.1736 11.8487 26.0121L46.2002 26.0121L46.2002 28.0121L11.8487 28.0121C16.054 30.8506 19.5133 34.6885 21.9029 39.2023L22.084 39.5442L20.3164 40.48Z"/>

</symbol>
<symbol id="down-arrow-perfect" viewBox="0 0 14 8">
<path d="M1 1L7 7L13 1" stroke="currentColor"/>

</symbol>
<symbol id="google" viewBox="0 0 24 24">
<g clip-path="url(#clip0_1694_2535)">
<path d="M21.8227 10.1979C21.9417 10.8691 22.001 11.5491 22 12.2303C22 15.2727 20.8906 17.8451 18.9599 19.5863H18.9625C17.2742 21.115 14.9533 22 12.2015 22C9.49587 22 6.90109 20.9465 4.98794 19.0712C3.0748 17.1959 2 14.6524 2 12.0003C2 9.34825 3.0748 6.8048 4.98794 4.9295C6.90109 3.05419 9.49587 2.00066 12.2015 2.00066C14.7339 1.97159 17.1796 2.90417 19.0263 4.60307L16.1137 7.45798C15.0609 6.47423 13.6558 5.93552 12.2015 5.95803C9.54016 5.95803 7.27926 7.71797 6.47335 10.0879C6.04604 11.3297 6.04604 12.6747 6.47335 13.9165H6.47717C7.28691 16.2827 9.54399 18.0426 12.2053 18.0426C13.5799 18.0426 14.7608 17.6976 15.6764 17.0877H15.6725C16.2042 16.7424 16.6589 16.2952 17.0094 15.7729C17.3598 15.2507 17.5987 14.6642 17.7115 14.049H12.2015V10.1991L21.8227 10.1979Z" fill="currentColor"/>
</g>
<defs>
<clipPath id="clip0_1694_2535">
<rect width="24" height="24" fill="currentColor"/>
</clipPath>
</defs>

</symbol>
<symbol id="search-icon" viewBox="0 0 18 18">
<circle cx="8" cy="8" r="7" stroke="currentColor"/>
<path d="M13 13L17 17" stroke="currentColor"/>

</symbol></svg>